<?xml version="1.0" encoding="UTF-8" standalone="no"?>
<svg
   id="svg"
   version="1.1"
   width="400"
   height="400"
   viewBox="0, 0, 400,400"
   sodipodi:docname="tgf2.svg"
   inkscape:version="1.1 (c68e22c387, 2021-05-23)"
   xmlns:inkscape="http://www.inkscape.org/namespaces/inkscape"
   xmlns:sodipodi="http://sodipodi.sourceforge.net/DTD/sodipodi-0.dtd"
   xmlns="http://www.w3.org/2000/svg"
   xmlns:svg="http://www.w3.org/2000/svg">
  <defs
     id="defs21" />
  <sodipodi:namedview
     id="namedview19"
     pagecolor="#ffffff"
     bordercolor="#666666"
     borderopacity="1.0"
     inkscape:pageshadow="2"
     inkscape:pageopacity="0.0"
     inkscape:pagecheckerboard="0"
     showgrid="false"
     inkscape:zoom="1.5057788"
     inkscape:cx="263.3189"
     inkscape:cy="256.67781"
     inkscape:window-width="1920"
     inkscape:window-height="1057"
     inkscape:window-x="-8"
     inkscape:window-y="-8"
     inkscape:window-maximized="1"
     inkscape:current-layer="layer1" />
  <g
     inkscape:groupmode="layer"
     id="layer1"
     inkscape:label="bg">
    <rect
       style="font-variation-settings:normal;opacity:1;vector-effect:none;fill:#74243c;fill-opacity:1;stroke:none;stroke-width:0.920519;stroke-linecap:butt;stroke-linejoin:miter;stroke-miterlimit:4;stroke-dasharray:none;stroke-dashoffset:0;stroke-opacity:1;-inkscape-stroke:none;stop-color:#000000;stop-opacity:1"
       id="rect2483"
       width="413.07529"
       height="411.74707"
       x="-5.9769735"
       y="-4.6487575" />
  </g>
  <g
     id="svgg"
     style="font-variation-settings:normal;opacity:1;vector-effect:none;fill:#74243c;fill-opacity:1;stroke:none;stroke-width:1;stroke-linecap:butt;stroke-linejoin:miter;stroke-miterlimit:4;stroke-dasharray:none;stroke-dashoffset:0;stroke-opacity:1;-inkscape-stroke:none;stop-color:#000000;stop-opacity:1">
    <path
       id="path0"
       d="m 195.191,68.726 c -0.555,0.151 -1.652,0.769 -2.438,1.374 -1.701,1.31 -2.189,1.369 -2.469,0.298 -0.367,-1.403 -1.34,-0.465 -1.889,1.822 -0.606,2.525 -0.524,2.479 -2.068,1.18 -0.654,-0.55 -1.32,-1 -1.481,-1 -1.765,0 -2.783,5.016 -1.435,7.072 0.504,0.77 0.693,1.736 0.633,3.233 -0.078,1.918 0.037,2.25 1.135,3.275 1.022,0.955 1.221,1.443 1.221,2.997 0,4.151 1.627,11.517 2.951,13.365 3.412,4.759 3.003,6.108 -2.751,9.074 -13.465,6.941 -12.706,5.873 -13.061,18.384 -0.144,5.06 -0.472,10.28 -0.731,11.6 -0.258,1.32 -0.56,4.605 -0.671,7.3 -0.111,2.695 -0.246,4.9 -0.299,4.9 -0.053,0 -1.111,-0.99 -2.35,-2.2 -3.349,-3.27 -4.557,-2.84 -9.386,3.339 -3.071,3.93 -3.703,5.323 -2.961,6.521 0.253,0.407 0.669,1.078 0.925,1.491 0.393,0.634 0.268,0.963 -0.798,2.1 -1.961,2.092 -2.063,1.923 5.074,8.456 2.909,2.662 3.82,3.063 5.238,2.304 0.598,-0.321 0.903,-0.125 1.713,1.1 1.096,1.655 2.175,2.311 4.407,2.678 1.771,0.292 1.908,0.944 0.634,3.011 -1.324,2.146 -3.134,5.638 -3.134,6.045 0,0.2 -0.375,1.162 -0.834,2.138 -1.05,2.234 -0.83,2.899 1.567,4.726 2.704,2.063 3.106,4.23 3.838,20.691 0.142,3.19 0.42,6.7 0.619,7.8 0.199,1.1 0.557,3.673 0.796,5.717 0.487,4.177 1.339,7.791 2.134,9.044 0.57,0.9 1.156,3.439 1.902,8.239 0.256,1.65 0.606,3.54 0.778,4.2 0.172,0.66 0.522,2.55 0.778,4.2 0.257,1.65 0.639,3.9 0.849,5 0.211,1.1 0.758,5.33 1.217,9.4 0.458,4.07 0.93,7.556 1.047,7.747 0.202,0.328 0.497,1.377 1.309,4.653 0.191,0.77 0.552,2.12 0.804,3 0.621,2.178 1.133,4.699 1.583,7.8 0.375,2.592 0.696,4.495 1.654,9.8 0.277,1.54 0.517,3.776 0.532,4.969 l 0.027,2.169 -2,1.195 c -3.828,2.287 -7.613,4.11 -9.6,4.625 -2.255,0.584 -4.2,1.269 -4.2,1.479 0,0.077 0.44,1.135 0.978,2.352 l 0.978,2.211 h 13.791 c 18.517,0 19.326,-0.188 19.535,-4.546 0.107,-2.222 0.206,-2.466 1.047,-2.586 0.973,-0.137 0.985,2.543 0.02,4.406 -0.192,0.37 -0.349,0.964 -0.349,1.319 0,0.671 -0.846,2.528 -2.332,5.119 -2.608,4.545 -0.844,6.132 6.644,5.98 9.813,-0.2 13.288,-2.071 13.288,-7.154 0,-1.11 0.197,-2.585 0.439,-3.277 0.385,-1.107 0.301,-1.488 -0.7,-3.16 -2.547,-4.253 -2.424,-3.216 -2.297,-19.23 0.064,-8.069 -0.051,-15.416 -0.255,-16.326 -0.203,-0.91 -0.454,-6.13 -0.557,-11.6 -0.243,-12.885 -0.871,-16.448 -3.64,-20.631 -1.265,-1.913 -1.249,-3.328 0.073,-6.202 1.327,-2.885 1.748,-6.927 1.441,-13.822 -0.142,-3.166 -0.072,-5.448 0.184,-6 0.95,-2.051 1.312,-3.183 1.312,-4.109 0,-1.084 0.584,-1.32 0.945,-0.381 0.904,2.356 7.209,-2.609 10.631,-8.372 1.508,-2.54 1.834,-7.123 0.826,-11.62 -0.373,-1.663 -0.324,-2.073 0.386,-3.277 0.87,-1.476 1.063,-3.128 0.412,-3.531 -0.22,-0.136 -0.4,-1.126 -0.4,-2.2 0,-1.074 0.18,-2.064 0.4,-2.2 0.22,-0.136 0.4,-0.599 0.4,-1.029 0,-0.43 0.163,-1.094 0.362,-1.476 4.622,-8.861 5.761,-25.048 2.455,-34.895 -0.184,-0.55 -0.551,-3.07 -0.815,-5.6 -0.414,-3.979 -1.142,-7.106 -2.373,-10.2 -0.718,-1.805 -1.23,-3.714 -1.241,-4.628 -0.006,-0.535 -0.361,-2.232 -0.788,-3.772 -0.427,-1.54 -0.784,-3.52 -0.793,-4.4 -0.04,-3.927 -1.789,-8.029 -4.008,-9.401 -0.879,-0.543 -1.599,-1.114 -1.599,-1.268 0,-0.154 -1.747,-1.136 -3.882,-2.182 -3.608,-1.766 -5.197,-2.264 -8.988,-2.814 -0.958,-0.139 -2.195,-0.833 -3.555,-1.994 -1.748,-1.492 -2.272,-1.739 -3.231,-1.529 -1.68,0.369 -1.712,-2.52 -0.044,-4.071 0.605,-0.563 1.64,-1.537 2.3,-2.165 1.693,-1.61 3.242,-5.726 2.647,-7.032 -0.644,-1.415 -0.556,-2.313 0.383,-3.905 1.15,-1.949 0.919,-3.263 -0.554,-3.16 -0.97,0.067 -1.223,-0.156 -1.86,-1.643 -0.554,-1.292 -1.022,-1.785 -1.877,-1.982 -0.697,-0.159 -1.605,-0.904 -2.339,-1.918 -0.66,-0.911 -2.077,-2.124 -3.149,-2.696 -1.072,-0.572 -2.332,-1.543 -2.8,-2.159 -2.493,-3.276 -2.759,-3.468 -5.051,-3.652 -1.21,-0.098 -2.654,-0.054 -3.209,0.097 M 172,155.054 c 0,0.578 -0.802,3.742 -1.033,4.074 -0.189,0.271 -1.767,-0.944 -1.767,-1.36 0,-0.538 2.084,-3.333 2.5,-3.353 0.165,-0.008 0.3,0.279 0.3,0.639"
       stroke="none"
       fill="#74243c"
       fill-rule="evenodd"
       style="font-variation-settings:normal;vector-effect:none;fill:#ffffff;fill-opacity:1;stroke:none;stroke-width:1;stroke-linecap:butt;stroke-linejoin:miter;stroke-miterlimit:4;stroke-dasharray:none;stroke-dashoffset:0;stroke-opacity:1;-inkscape-stroke:none;stop-color:#000000;stop-opacity:1" />
  </g>
</svg>
