<svg version="1.1" xmlns="http://www.w3.org/2000/svg" xmlns:xlink="http://www.w3.org/1999/xlink" viewBox="0 0 400 400">
    <path fill="#0F004E" d="M174.400 110.810 C 173.410 110.992,168.871 111.154,164.314 111.170 C 158.064 111.193,155.594 111.347,154.261 111.800 C 153.289 112.130,151.257 112.652,149.747 112.960 C 145.802 113.765,136.000 117.995,136.000 118.892 C 136.000 119.077,135.235 119.557,134.300 119.958 C 132.021 120.935,122.400 130.473,122.400 131.755 C 122.400 132.046,121.995 132.722,121.500 133.258 C 120.416 134.433,117.829 139.339,117.434 140.968 C 117.278 141.611,116.818 142.559,116.412 143.076 C 116.005 143.592,115.544 144.957,115.386 146.108 C 115.228 147.258,114.703 149.100,114.218 150.200 C 113.623 151.552,113.175 153.820,112.835 157.200 C 112.559 159.950,112.182 162.560,111.998 163.000 C 110.010 167.745,111.841 240.831,114.163 249.400 C 114.699 251.380,115.345 254.035,115.598 255.300 C 115.851 256.565,116.205 257.600,116.385 257.600 C 116.566 257.600,117.017 258.365,117.389 259.300 C 117.760 260.235,118.398 261.360,118.805 261.800 C 119.213 262.240,119.732 263.090,119.959 263.688 C 120.985 266.397,126.922 273.717,130.001 276.069 C 133.933 279.074,135.236 280.000,135.532 280.000 C 135.711 280.000,136.565 280.535,137.429 281.189 C 138.293 281.843,139.198 282.383,139.440 282.389 C 139.683 282.395,140.750 282.862,141.812 283.427 C 142.874 283.992,144.746 284.638,145.972 284.862 C 147.197 285.087,149.010 285.606,150.000 286.015 C 150.990 286.423,154.050 287.043,156.800 287.391 C 159.550 287.739,163.150 288.280,164.800 288.594 C 175.405 290.614,233.069 290.455,241.600 288.384 C 243.470 287.930,246.440 287.377,248.200 287.156 C 249.960 286.935,251.760 286.522,252.200 286.237 C 252.640 285.953,253.990 285.494,255.200 285.219 C 256.410 284.944,258.480 284.197,259.800 283.559 C 261.120 282.921,262.453 282.400,262.762 282.400 C 263.071 282.400,263.881 281.976,264.562 281.458 C 265.243 280.939,266.250 280.380,266.800 280.215 C 268.650 279.661,272.179 277.021,275.110 274.000 C 278.976 270.015,279.486 269.400,279.810 268.318 C 279.962 267.813,280.593 266.590,281.212 265.600 C 281.832 264.610,282.470 263.086,282.630 262.214 C 282.790 261.341,283.250 259.885,283.651 258.977 C 284.052 258.070,284.553 255.904,284.763 254.164 C 285.552 247.624,286.084 244.151,286.535 242.600 C 286.876 241.426,287.000 228.762,287.000 195.000 L 287.000 149.000 285.900 145.933 C 285.295 144.246,284.799 142.536,284.798 142.133 C 284.798 141.730,284.258 140.320,283.600 139.000 C 282.942 137.680,282.395 136.420,282.385 136.200 C 282.367 135.832,280.543 132.851,277.940 128.936 C 275.387 125.098,267.167 118.171,264.328 117.465 C 263.738 117.319,263.018 116.968,262.728 116.685 C 261.741 115.725,255.016 113.501,250.902 112.774 C 248.648 112.375,246.578 111.903,246.302 111.725 C 245.166 110.990,178.064 110.136,174.400 110.810 M242.939 116.333 C 243.193 116.534,244.300 116.802,245.400 116.928 C 250.702 117.537,252.939 117.992,254.420 118.764 C 255.306 119.226,256.818 119.780,257.779 119.995 C 259.452 120.370,261.305 121.352,265.911 124.304 C 268.952 126.253,274.221 131.744,275.601 134.400 C 275.886 134.950,276.243 135.490,276.395 135.600 C 276.984 136.029,279.906 142.687,280.169 144.200 C 280.322 145.080,280.841 146.790,281.323 148.000 L 282.200 150.200 282.314 188.600 C 282.424 225.215,282.172 237.823,281.205 244.200 C 281.005 245.520,280.577 248.619,280.253 251.087 C 279.907 253.733,279.242 256.633,278.633 258.155 C 278.065 259.575,277.600 261.012,277.600 261.349 C 277.600 262.170,276.749 264.000,276.367 264.000 C 276.199 264.000,275.850 264.643,275.591 265.428 C 274.945 267.383,270.788 271.685,267.400 273.903 C 265.860 274.911,263.960 276.156,263.178 276.668 C 262.397 277.181,261.497 277.602,261.178 277.605 C 260.860 277.607,259.815 278.059,258.855 278.607 C 257.895 279.156,256.095 279.861,254.855 280.174 C 253.615 280.488,251.520 281.108,250.200 281.554 C 248.880 281.999,246.450 282.544,244.800 282.764 C 243.150 282.985,240.540 283.450,239.000 283.798 C 230.349 285.756,173.969 285.615,164.774 283.614 C 162.890 283.204,159.830 282.737,157.974 282.577 C 156.118 282.417,153.610 281.937,152.400 281.511 C 151.190 281.085,149.004 280.489,147.543 280.185 C 146.081 279.882,144.211 279.176,143.387 278.617 C 142.563 278.058,141.709 277.600,141.489 277.600 C 141.270 277.600,139.834 276.745,138.298 275.700 C 136.762 274.655,134.970 273.458,134.315 273.041 C 132.484 271.874,128.028 267.178,127.160 265.500 C 126.733 264.675,126.238 264.000,126.060 264.000 C 125.882 264.000,125.315 263.100,124.800 262.000 C 124.285 260.900,123.734 260.000,123.575 260.000 C 123.417 260.000,122.993 259.325,122.634 258.500 C 122.275 257.675,121.535 256.207,120.990 255.237 C 120.446 254.267,119.992 252.917,119.982 252.237 C 119.973 251.557,119.692 250.280,119.359 249.400 C 115.425 239.002,115.318 155.678,119.233 150.961 C 119.448 150.701,119.823 149.344,120.066 147.944 C 120.309 146.545,120.847 144.917,121.262 144.326 C 121.677 143.736,122.288 142.483,122.620 141.543 C 122.952 140.602,123.375 139.735,123.561 139.616 C 123.746 139.497,124.289 138.590,124.768 137.600 C 126.119 134.803,129.850 129.985,132.342 127.819 C 132.860 127.369,133.619 126.691,134.028 126.314 C 135.308 125.134,138.225 123.298,143.000 120.666 C 143.660 120.303,144.491 120.004,144.846 120.002 C 145.201 120.001,145.921 119.666,146.446 119.257 C 146.971 118.849,148.300 118.309,149.400 118.057 C 156.519 116.429,157.900 116.250,165.400 115.985 C 176.657 115.588,242.372 115.883,242.939 116.333 M154.459 173.612 C 150.534 175.428,149.025 177.307,146.918 183.000 C 143.642 191.856,155.449 202.688,163.923 198.600 C 165.063 198.050,166.093 197.600,166.211 197.600 C 167.388 197.600,171.163 192.382,171.855 189.800 C 174.823 178.715,164.398 169.014,154.459 173.612 M234.200 173.787 C 223.838 178.729,224.073 193.677,234.586 198.394 C 238.052 199.949,240.717 200.011,243.525 198.600 C 244.620 198.050,245.670 197.599,245.858 197.598 C 246.314 197.595,250.000 194.090,250.000 193.660 C 250.000 193.474,250.338 192.932,250.752 192.455 C 252.636 190.283,252.569 181.312,250.654 179.397 C 250.294 179.037,250.000 178.567,250.000 178.353 C 250.000 177.484,246.453 174.469,244.252 173.468 C 240.861 171.926,237.907 172.020,234.200 173.787 M165.098 178.452 C 167.266 180.422,168.928 183.979,168.696 186.152 C 168.497 188.019,166.857 192.036,166.095 192.522 C 165.818 192.700,165.182 193.286,164.681 193.826 C 160.114 198.751,150.695 193.533,150.632 186.042 C 150.565 177.964,159.438 173.309,165.098 178.452 M245.129 178.480 C 252.247 184.946,247.120 196.784,237.790 195.429 C 235.459 195.090,231.649 191.573,230.788 188.964 C 227.936 180.322,238.586 172.536,245.129 178.480 M195.600 220.617 C 194.390 220.919,192.950 221.175,192.400 221.186 C 191.409 221.205,190.854 221.446,187.845 223.161 C 179.454 227.946,179.479 240.869,187.889 245.616 C 192.581 248.263,209.954 248.401,213.342 245.817 C 214.075 245.258,214.879 244.800,215.129 244.800 C 215.378 244.800,215.889 244.305,216.265 243.700 C 216.640 243.095,217.260 242.240,217.642 241.800 C 219.330 239.853,220.006 234.175,219.070 229.800 C 218.126 225.388,213.526 221.918,207.642 221.179 C 206.178 220.995,204.175 220.659,203.190 220.432 C 200.816 219.885,198.286 219.947,195.600 220.617 M204.200 224.189 C 215.775 226.452,219.285 232.716,213.545 240.866 C 212.822 241.892,210.257 243.006,206.200 244.055 C 203.808 244.674,194.877 244.276,193.436 243.486 C 192.796 243.136,191.591 242.734,190.758 242.593 C 185.641 241.728,183.693 232.403,187.752 228.199 C 191.207 224.620,197.969 222.971,204.200 224.189 " />
</svg>
