<svg version="1.1" xmlns="http://www.w3.org/2000/svg" xmlns:xlink="http://www.w3.org/1999/xlink" viewBox="0 0 400 400">
    <path fill="#000000" d="M178.783 54.363 C 177.343 54.521,175.964 54.775,175.718 54.927 C 175.472 55.079,173.508 55.566,171.353 56.010 C 169.198 56.453,167.028 57.083,166.531 57.409 C 166.033 57.735,164.646 58.368,163.449 58.816 C 162.252 59.264,161.046 59.904,160.768 60.238 C 160.491 60.573,159.709 61.084,159.032 61.375 C 155.268 62.990,151.260 68.720,149.782 74.600 C 147.801 82.483,147.193 122.805,148.950 129.800 C 149.060 130.240,149.251 132.277,149.373 134.326 L 149.595 138.052 147.093 139.187 C 145.717 139.811,143.604 140.636,142.396 141.020 C 141.188 141.405,139.930 141.932,139.600 142.191 C 139.270 142.451,137.980 143.150,136.733 143.745 C 134.330 144.891,127.945 150.197,127.153 151.704 C 126.895 152.197,126.438 152.745,126.139 152.921 C 125.839 153.098,125.211 153.998,124.743 154.921 C 124.275 155.845,123.754 156.690,123.585 156.800 C 123.416 156.910,122.806 157.990,122.230 159.200 C 121.653 160.410,120.918 161.850,120.597 162.400 C 120.275 162.950,120.009 163.781,120.006 164.247 C 120.003 164.713,119.478 166.693,118.840 168.647 C 117.705 172.122,117.669 172.498,117.207 185.800 C 115.850 224.891,115.782 228.987,116.324 239.200 C 117.139 254.541,117.653 259.249,118.784 261.722 C 119.207 262.645,119.751 264.169,119.994 265.108 C 120.237 266.048,120.877 267.468,121.418 268.264 C 121.958 269.060,122.400 270.033,122.400 270.425 C 122.400 270.818,122.850 271.673,123.400 272.327 C 123.950 272.981,124.400 273.631,124.400 273.771 C 124.400 274.385,128.651 280.188,130.334 281.871 C 131.947 283.484,132.179 283.928,132.159 285.360 C 132.127 287.631,131.280 291.885,130.598 293.203 C 130.287 293.806,129.839 295.537,129.603 297.050 C 129.368 298.562,128.822 300.880,128.390 302.200 C 126.577 307.742,126.237 327.674,127.937 328.771 C 128.132 328.897,128.665 329.735,129.120 330.633 C 130.027 332.422,134.501 336.800,135.423 336.800 C 135.740 336.800,136.352 337.152,136.781 337.581 C 139.924 340.724,160.361 341.064,162.400 338.007 C 162.510 337.842,163.320 337.342,164.200 336.895 C 166.820 335.565,171.073 330.959,172.223 328.207 C 172.851 326.705,174.000 326.769,174.000 328.307 C 174.000 328.642,174.630 330.226,175.400 331.827 C 176.170 333.428,176.800 334.905,176.800 335.109 C 176.800 337.230,185.140 342.754,189.694 343.650 C 192.326 344.168,203.201 343.889,205.600 343.242 C 212.667 341.336,220.331 334.496,221.376 329.164 C 221.523 328.414,221.888 327.170,222.188 326.400 C 223.756 322.371,224.000 320.810,224.000 314.782 C 224.000 308.968,223.495 305.059,222.324 301.800 C 221.030 298.202,221.589 296.654,224.004 297.147 L 225.400 297.432 225.622 312.016 L 225.844 326.600 227.122 329.049 C 227.825 330.397,228.400 331.675,228.400 331.891 C 228.400 332.107,228.835 332.752,229.366 333.326 C 229.898 333.899,230.573 334.690,230.868 335.084 C 233.154 338.143,240.086 340.939,245.400 340.945 C 249.321 340.949,253.825 339.637,258.667 337.080 C 260.265 336.236,266.000 330.957,266.000 330.330 C 266.000 330.164,266.540 329.176,267.200 328.136 C 267.860 327.095,268.400 325.914,268.400 325.512 C 268.400 325.109,268.783 323.750,269.250 322.490 C 270.456 319.241,270.840 303.623,269.813 299.600 C 269.448 298.170,268.903 295.830,268.602 294.399 C 268.301 292.969,267.595 290.809,267.032 289.599 C 265.688 286.712,265.600 283.286,266.841 282.163 C 267.303 281.744,267.955 280.861,268.288 280.201 C 268.621 279.540,269.207 278.640,269.591 278.200 C 270.283 277.406,272.177 273.844,274.175 269.578 C 274.748 268.356,275.387 266.376,275.595 265.178 C 275.803 263.980,276.294 262.190,276.686 261.200 C 277.348 259.530,277.396 257.447,277.345 232.400 C 277.252 187.048,276.555 171.723,274.366 166.865 C 273.904 165.839,273.265 164.145,272.947 163.100 C 272.629 162.055,272.211 161.200,272.018 161.200 C 271.824 161.200,271.353 160.381,270.971 159.379 C 270.588 158.377,269.969 157.342,269.595 157.079 C 269.221 156.816,268.791 156.207,268.639 155.727 C 268.311 154.688,263.347 149.765,260.800 147.951 C 259.810 147.247,258.940 146.519,258.867 146.335 C 258.793 146.151,258.499 146.000,258.212 146.000 C 257.925 146.000,256.815 145.403,255.745 144.673 C 254.675 143.943,253.462 143.220,253.050 143.066 C 252.207 142.752,252.312 141.094,253.376 137.900 C 253.687 136.965,254.148 134.400,254.400 132.200 C 254.652 130.000,255.095 127.480,255.385 126.600 C 255.675 125.720,256.117 123.290,256.367 121.200 C 257.424 112.358,257.701 110.499,258.236 108.627 C 259.094 105.627,259.024 74.877,258.154 72.600 C 257.818 71.720,257.287 70.212,256.975 69.249 C 255.121 63.529,248.719 57.899,242.365 56.400 C 241.174 56.120,239.300 55.522,238.200 55.072 C 236.408 54.339,235.306 54.252,227.600 54.227 L 219.000 54.200 216.000 55.670 C 212.772 57.252,210.608 59.239,209.280 61.843 C 208.499 63.373,206.933 64.800,206.033 64.800 C 205.815 64.800,205.464 64.171,205.252 63.402 C 204.524 60.768,201.377 57.664,197.603 55.858 L 194.200 54.230 187.800 54.152 C 184.280 54.109,180.222 54.204,178.783 54.363 M192.465 58.566 C 197.503 59.539,200.344 61.374,199.851 63.338 L 199.585 64.400 193.619 64.400 C 190.061 64.400,186.552 64.627,184.926 64.961 C 183.427 65.270,180.850 65.641,179.200 65.786 C 173.416 66.296,162.400 72.450,162.400 75.172 C 162.400 75.373,161.925 76.103,161.344 76.794 C 160.757 77.491,160.136 78.883,159.946 79.925 C 159.759 80.956,159.441 82.160,159.241 82.600 C 157.661 86.068,157.767 131.504,159.363 134.915 C 159.862 135.983,158.660 137.058,156.344 137.613 C 153.432 138.312,153.368 138.147,153.051 129.036 C 152.800 121.835,152.554 118.686,151.533 109.600 C 151.083 105.598,151.246 98.487,151.964 90.800 C 152.200 88.270,152.639 83.500,152.940 80.200 C 153.432 74.790,153.612 73.958,154.770 71.736 C 155.958 69.457,158.784 66.000,159.458 66.000 C 159.618 66.000,160.120 65.663,160.574 65.250 C 161.028 64.838,162.300 64.009,163.400 63.409 C 164.500 62.808,165.580 62.176,165.800 62.004 C 166.020 61.833,166.830 61.562,167.600 61.403 C 168.370 61.244,169.540 60.793,170.200 60.400 C 171.711 59.503,174.962 58.812,177.920 58.760 C 179.174 58.738,180.650 58.576,181.200 58.400 C 182.862 57.868,189.341 57.964,192.465 58.566 M234.430 58.613 C 238.787 59.254,240.855 59.786,242.200 60.613 C 242.640 60.884,243.534 61.229,244.186 61.382 C 246.089 61.826,251.544 66.183,251.588 67.294 C 251.595 67.456,252.121 68.446,252.757 69.494 C 255.833 74.561,255.869 101.085,252.823 118.000 C 252.169 121.630,251.465 125.860,251.258 127.400 C 251.052 128.940,250.684 130.962,250.441 131.893 C 250.198 132.824,249.815 134.894,249.591 136.493 C 249.010 140.624,248.927 140.800,247.560 140.800 C 243.587 140.800,241.807 137.950,243.400 134.139 C 243.730 133.349,244.366 129.631,244.815 125.876 C 245.263 122.120,245.818 118.317,246.048 117.424 C 247.031 113.608,247.199 110.963,247.453 95.349 C 247.748 77.172,247.694 76.581,245.415 73.098 C 242.544 68.710,238.212 66.099,233.249 65.764 C 231.352 65.636,229.121 65.277,228.292 64.966 C 226.405 64.258,221.023 64.251,217.755 64.953 C 215.428 65.453,212.801 65.400,212.799 64.855 C 212.776 59.514,222.154 56.808,234.430 58.613 M200.955 68.783 C 203.579 69.781,203.787 73.537,202.836 102.800 C 201.827 133.890,201.718 135.236,200.147 135.951 C 198.543 136.682,164.388 136.572,163.376 135.832 C 162.622 135.280,162.600 134.539,162.600 109.132 L 162.600 83.000 164.126 80.244 C 165.848 77.137,168.710 74.102,171.218 72.726 C 172.146 72.217,173.319 71.571,173.824 71.292 C 174.330 71.012,175.792 70.601,177.072 70.379 C 178.352 70.157,179.850 69.768,180.400 69.515 C 182.543 68.527,198.763 67.950,200.955 68.783 M229.200 68.768 C 233.319 69.196,237.214 70.625,239.548 72.565 C 241.201 73.939,242.400 75.288,242.400 75.774 C 242.400 76.025,242.797 76.944,243.282 77.815 C 244.450 79.914,244.925 101.331,243.855 103.682 C 243.525 104.407,243.172 106.350,243.071 108.000 C 242.642 114.989,241.893 121.171,241.180 123.600 C 240.761 125.030,240.235 128.390,240.011 131.067 C 239.417 138.189,238.753 139.046,234.478 138.208 C 228.814 137.098,220.711 136.473,211.380 136.428 C 208.289 136.412,205.589 136.230,205.380 136.022 C 204.995 135.638,205.235 128.101,205.985 117.000 C 206.741 105.819,207.121 97.261,207.157 90.600 C 207.181 86.039,207.394 82.944,207.802 81.200 C 208.137 79.770,208.723 76.896,209.105 74.814 C 210.175 68.986,210.856 68.663,222.400 68.508 C 224.490 68.480,227.550 68.597,229.200 68.768 M225.800 141.931 C 226.460 142.173,230.060 142.751,233.800 143.215 C 237.913 143.725,241.232 144.350,242.200 144.794 C 243.080 145.199,244.430 145.658,245.200 145.815 C 245.970 145.971,247.630 146.617,248.889 147.250 C 250.147 147.882,251.439 148.400,251.758 148.400 C 252.077 148.400,252.873 148.850,253.527 149.400 C 254.181 149.950,254.852 150.400,255.019 150.400 C 256.491 150.400,265.978 159.587,266.007 161.041 C 266.011 161.239,266.551 162.192,267.207 163.160 C 267.863 164.128,268.400 165.211,268.400 165.566 C 268.400 165.921,268.760 166.884,269.201 167.706 C 270.726 170.551,271.600 179.106,271.600 191.179 C 271.600 197.102,271.761 202.371,271.958 202.889 C 272.870 205.288,272.629 257.659,271.696 259.888 C 271.215 261.036,270.643 263.085,270.424 264.441 C 270.206 265.797,269.750 267.213,269.412 267.587 C 269.073 267.961,268.529 269.167,268.202 270.268 C 267.875 271.368,267.246 272.596,266.804 272.996 C 266.362 273.397,266.000 273.926,266.000 274.173 C 266.000 275.899,259.186 283.174,256.090 284.754 C 255.241 285.187,254.311 285.825,254.024 286.171 C 253.737 286.517,253.279 286.800,253.007 286.800 C 252.735 286.800,251.491 287.345,250.242 288.012 C 248.756 288.805,246.906 289.373,244.886 289.658 C 243.189 289.897,240.810 290.253,239.600 290.449 C 229.162 292.136,161.813 292.471,159.855 290.845 C 159.543 290.587,158.144 290.183,156.744 289.948 C 154.018 289.489,150.878 288.560,150.210 288.013 C 149.984 287.829,148.990 287.464,148.000 287.202 C 147.010 286.940,145.660 286.319,145.000 285.821 C 144.340 285.323,143.350 284.779,142.800 284.612 C 142.250 284.445,141.440 284.002,141.000 283.628 C 140.560 283.254,139.660 282.616,139.000 282.210 C 138.340 281.805,137.440 281.143,137.000 280.739 C 136.560 280.335,135.371 279.238,134.357 278.302 C 132.433 276.524,127.830 270.256,127.165 268.508 C 126.953 267.951,126.452 267.024,126.051 266.448 C 125.650 265.871,125.103 264.500,124.835 263.400 C 124.567 262.300,124.118 261.040,123.837 260.600 C 122.756 258.907,122.232 253.913,121.631 239.600 C 121.461 235.530,121.083 231.256,120.792 230.103 C 120.355 228.366,120.355 227.747,120.791 226.503 C 121.156 225.466,121.423 220.912,121.656 211.800 C 122.618 174.180,122.733 171.764,123.608 170.600 C 123.774 170.380,124.302 168.670,124.783 166.800 C 125.264 164.930,125.892 163.130,126.179 162.800 C 126.466 162.470,127.084 161.390,127.552 160.400 C 129.565 156.142,136.920 148.400,138.951 148.400 C 139.157 148.400,139.945 147.927,140.703 147.348 C 141.462 146.770,142.829 146.131,143.741 145.929 C 144.654 145.727,146.120 145.231,147.000 144.826 C 147.880 144.422,150.310 143.880,152.400 143.623 C 154.490 143.366,157.460 142.872,159.000 142.524 C 160.540 142.177,163.150 141.752,164.800 141.579 C 169.492 141.088,224.364 141.404,225.800 141.931 M152.858 187.369 C 146.950 189.765,144.000 194.086,144.000 200.344 C 144.000 202.585,144.181 203.951,144.532 204.369 C 144.825 204.716,145.364 205.810,145.729 206.800 C 148.630 214.652,160.089 216.091,166.441 209.400 C 169.816 205.846,170.884 197.604,168.437 194.000 C 167.765 193.010,167.211 192.013,167.207 191.785 C 167.179 190.198,159.432 186.063,156.400 186.017 C 156.290 186.015,154.696 186.623,152.858 187.369 M232.800 187.364 C 229.178 188.786,226.312 191.011,225.797 192.800 C 225.638 193.350,225.169 194.361,224.754 195.047 C 222.600 198.608,224.193 206.273,227.875 210.068 C 233.376 215.736,244.193 214.483,247.447 207.800 C 247.768 207.140,248.375 205.970,248.796 205.200 C 249.389 204.115,249.566 202.963,249.581 200.084 C 249.600 196.293,249.538 196.078,247.347 192.313 C 245.827 189.702,242.137 187.297,238.285 186.409 C 236.160 185.918,236.743 185.816,232.800 187.364 M158.493 190.766 C 168.914 193.186,167.509 209.602,156.881 209.599 C 151.251 209.598,147.141 204.152,148.228 198.134 C 149.103 193.294,154.059 189.736,158.493 190.766 M240.248 191.339 C 249.001 196.090,246.297 209.600,236.593 209.600 C 230.993 209.600,227.296 204.527,228.223 198.116 C 229.036 192.497,235.582 188.807,240.248 191.339 M194.800 234.432 C 194.030 234.614,192.100 234.966,190.510 235.216 C 188.868 235.473,187.200 236.000,186.647 236.435 C 186.112 236.856,185.469 237.200,185.218 237.200 C 184.725 237.200,181.200 240.529,181.200 240.994 C 181.200 241.149,180.866 241.754,180.458 242.338 C 177.975 245.893,179.037 255.375,182.214 258.011 C 189.438 264.007,210.940 263.359,214.508 257.037 C 216.704 253.146,216.912 252.361,216.912 247.944 C 216.912 240.549,213.027 236.542,204.600 235.243 C 202.840 234.972,200.305 234.581,198.967 234.375 C 197.629 234.169,196.459 234.023,196.367 234.051 C 196.275 234.078,195.570 234.250,194.800 234.432 M205.819 239.647 C 213.382 242.155,215.483 248.059,211.074 254.419 C 206.479 261.051,185.235 259.335,183.588 252.200 C 182.238 246.348,184.405 241.465,189.000 240.004 C 189.880 239.725,190.841 239.304,191.135 239.070 C 192.986 237.597,200.529 237.893,205.819 239.647 M138.400 289.350 C 138.400 290.312,138.123 291.884,137.785 292.842 C 137.447 293.800,136.894 296.567,136.556 298.991 C 136.218 301.415,135.608 305.018,135.201 306.999 C 132.829 318.545,134.141 327.239,138.596 329.486 C 139.258 329.820,140.160 330.407,140.600 330.791 C 144.009 333.761,155.672 333.630,159.296 330.580 C 159.937 330.041,160.678 329.600,160.942 329.600 C 161.207 329.600,161.688 329.206,162.012 328.725 C 162.335 328.244,162.992 327.471,163.471 327.007 C 163.950 326.542,164.653 325.361,165.033 324.381 C 165.413 323.402,165.979 322.301,166.291 321.936 C 167.026 321.077,167.572 313.661,167.588 304.324 C 167.600 296.998,167.704 296.555,169.266 297.150 L 170.200 297.506 170.183 309.853 C 170.165 322.748,169.871 325.272,168.190 326.953 C 167.866 327.277,167.600 327.725,167.600 327.947 C 167.600 328.933,162.053 333.857,160.376 334.360 C 159.431 334.643,158.203 335.173,157.647 335.537 C 155.732 336.792,143.990 336.477,141.200 335.097 C 139.990 334.498,138.709 334.006,138.353 334.004 C 136.986 333.996,132.178 328.677,131.631 326.567 C 131.350 325.485,130.868 323.921,130.560 323.092 C 129.913 321.351,129.825 317.350,130.386 315.246 C 130.598 314.451,131.158 310.920,131.630 307.400 C 132.103 303.880,132.813 300.100,133.209 299.000 C 133.604 297.900,134.113 295.888,134.339 294.529 C 135.256 289.010,138.400 285.000,138.400 289.350 M263.390 291.100 C 263.745 292.365,264.433 294.390,264.918 295.600 C 266.214 298.833,266.290 321.502,265.011 323.418 C 264.577 324.068,263.839 325.410,263.371 326.400 C 262.167 328.949,257.073 333.913,255.324 334.241 C 254.574 334.381,253.688 334.770,253.354 335.103 C 251.222 337.235,240.027 337.196,237.654 335.049 C 237.260 334.692,236.771 334.395,236.569 334.388 C 234.928 334.336,231.219 329.178,230.365 325.761 C 229.957 324.127,229.438 322.444,229.211 322.021 C 228.430 320.562,228.670 297.116,229.464 297.271 C 230.061 297.387,230.134 298.409,230.174 307.235 L 230.219 317.070 231.321 319.194 C 231.927 320.363,232.603 322.120,232.822 323.100 C 233.042 324.080,233.667 325.465,234.211 326.179 C 234.755 326.892,235.200 327.678,235.200 327.924 C 235.200 328.171,235.829 329.003,236.598 329.772 C 243.287 336.460,258.738 332.865,261.404 324.000 C 261.570 323.450,262.086 322.460,262.552 321.800 C 263.859 319.949,263.861 300.272,262.554 297.800 C 262.089 296.920,261.579 295.488,261.421 294.618 C 261.262 293.748,260.697 292.517,260.164 291.884 C 259.631 291.251,259.258 290.613,259.336 290.466 C 259.413 290.320,259.589 289.885,259.726 289.500 C 260.394 287.622,262.695 288.627,263.390 291.100 M145.495 291.841 C 146.763 292.171,148.355 292.768,149.034 293.168 C 149.712 293.568,151.451 294.101,152.898 294.353 C 154.345 294.605,156.169 295.079,156.951 295.405 C 157.734 295.732,158.824 296.000,159.374 296.000 C 160.752 296.000,162.944 297.106,163.617 298.140 C 164.344 299.260,164.618 307.283,164.048 310.800 C 163.817 312.230,163.522 314.030,163.393 314.800 C 163.264 315.570,162.974 317.401,162.749 318.869 C 160.514 333.399,136.788 332.286,138.161 317.716 C 138.301 316.222,138.586 312.930,138.794 310.400 C 139.192 305.555,139.489 303.715,140.508 299.800 C 140.852 298.480,141.259 296.230,141.412 294.800 C 141.713 291.999,142.216 290.639,142.815 291.009 C 143.022 291.137,144.228 291.511,145.495 291.841 M255.899 292.500 C 256.117 292.775,256.508 293.661,256.768 294.468 C 257.028 295.275,257.493 296.145,257.801 296.401 C 258.109 296.656,258.477 297.706,258.619 298.733 C 258.760 299.760,259.129 301.616,259.438 302.858 C 260.228 306.032,260.203 315.817,259.400 317.738 C 259.070 318.528,258.800 319.628,258.800 320.182 C 258.800 321.084,255.081 326.079,253.824 326.865 C 253.591 327.011,252.885 327.575,252.254 328.117 C 250.561 329.576,244.962 330.141,242.517 329.100 C 237.285 326.873,234.538 318.842,234.683 306.200 C 234.791 296.811,235.038 296.284,239.643 295.606 C 246.126 294.652,250.792 293.704,251.372 293.224 C 251.935 292.756,253.809 292.154,255.051 292.041 C 255.299 292.018,255.681 292.225,255.899 292.500 M176.384 297.381 C 176.822 297.909,176.017 303.717,175.423 304.310 C 175.088 304.645,174.404 301.334,174.402 299.367 C 174.399 296.768,175.205 295.960,176.384 297.381 M211.157 297.165 C 212.996 298.330,212.846 321.069,210.980 323.867 C 210.564 324.490,209.886 325.673,209.472 326.496 C 205.408 334.585,189.181 334.796,186.147 326.800 C 185.772 325.810,185.180 324.666,184.832 324.258 C 183.963 323.238,183.917 311.928,184.775 310.400 C 185.084 309.850,185.650 307.870,186.033 306.000 C 186.416 304.130,187.286 301.388,187.966 299.907 L 189.202 297.213 199.701 297.100 C 205.475 297.037,210.290 296.947,210.400 296.899 C 210.510 296.851,210.851 296.971,211.157 297.165 M183.407 298.023 C 183.785 299.212,183.221 302.770,182.397 304.400 C 180.938 307.288,180.159 321.337,181.207 325.878 C 182.019 329.395,185.108 333.042,189.000 335.078 C 193.251 337.302,203.071 337.483,204.824 335.371 C 205.066 335.079,205.925 334.626,206.732 334.364 C 208.137 333.908,211.227 331.514,211.558 330.624 C 211.645 330.391,212.206 329.570,212.805 328.800 C 213.403 328.030,214.024 326.950,214.184 326.400 C 214.343 325.850,214.825 324.652,215.255 323.737 C 216.226 321.668,216.998 311.666,216.625 305.980 C 216.274 300.634,217.365 295.855,218.195 299.100 C 219.866 305.635,219.361 324.375,217.411 328.168 C 216.855 329.250,216.400 330.345,216.400 330.602 C 216.400 330.858,215.905 331.540,215.300 332.117 C 214.695 332.694,213.994 333.373,213.743 333.626 C 210.592 336.802,208.245 338.374,206.023 338.796 C 204.901 339.008,202.862 339.482,201.491 339.849 C 190.998 342.656,181.116 337.548,178.319 327.870 C 177.210 324.032,176.909 316.418,177.750 313.484 C 178.079 312.338,178.544 309.617,178.783 307.438 C 179.035 305.138,179.567 302.705,180.051 301.638 C 180.509 300.627,181.138 299.215,181.448 298.500 C 182.086 297.026,183.019 296.799,183.407 298.023 " />
</svg>
