<svg version="1.1" xmlns="http://www.w3.org/2000/svg" xmlns:xlink="http://www.w3.org/1999/xlink" viewBox="0 0 400 400">
    <path fill="#000000" d="M227.200 99.163 C 225.550 99.320,222.854 99.843,221.208 100.324 C 219.457 100.837,217.115 101.200,215.562 101.200 C 213.580 101.200,212.666 101.389,211.954 101.946 C 211.429 102.356,209.927 103.002,208.615 103.382 C 207.303 103.761,205.715 104.506,205.084 105.036 C 204.454 105.566,203.784 106.000,203.594 106.000 C 203.053 106.000,198.361 110.355,197.080 112.048 C 196.552 112.745,196.299 112.856,196.133 112.461 C 196.009 112.165,195.413 111.355,194.809 110.661 C 194.205 109.968,193.413 108.819,193.050 108.109 C 192.686 107.398,191.446 106.191,190.294 105.426 C 189.142 104.662,187.300 103.401,186.200 102.624 C 184.980 101.763,183.724 101.210,182.980 101.206 C 182.309 101.203,181.551 100.991,181.296 100.736 C 180.887 100.327,175.138 99.523,173.000 99.577 C 169.252 99.670,162.785 100.336,161.874 100.723 C 161.255 100.985,159.273 101.200,157.471 101.200 C 154.785 101.200,153.870 101.372,152.397 102.155 C 151.409 102.680,149.854 103.333,148.943 103.606 C 148.031 103.878,146.788 104.528,146.181 105.050 C 145.573 105.573,144.896 106.000,144.676 106.000 C 143.921 106.000,138.865 111.775,138.642 112.892 C 138.519 113.506,138.055 114.501,137.610 115.104 C 135.070 118.550,135.179 138.558,137.755 141.619 C 138.330 142.302,138.800 143.121,138.800 143.439 C 138.800 144.218,143.021 148.400,143.807 148.400 C 144.502 148.400,147.641 151.609,147.373 152.044 C 147.279 152.196,146.301 152.536,145.200 152.800 C 144.099 153.064,143.103 153.434,142.986 153.622 C 142.870 153.810,141.881 154.450,140.788 155.045 C 139.694 155.640,138.800 156.275,138.800 156.455 C 138.800 156.636,138.125 157.132,137.300 157.559 C 134.517 158.996,127.650 166.589,126.720 169.257 C 126.017 171.274,123.616 169.829,122.831 166.916 C 122.449 165.496,120.397 161.888,119.240 160.600 C 118.022 159.245,115.574 157.246,114.851 157.016 C 114.383 156.868,114.000 156.593,114.000 156.405 C 114.000 156.218,113.055 155.763,111.900 155.395 C 110.745 155.026,109.288 154.364,108.662 153.922 C 106.662 152.512,95.445 151.842,88.800 152.736 C 85.338 153.202,82.392 154.462,77.975 157.367 C 74.549 159.619,70.400 164.782,70.400 166.792 C 70.400 167.257,69.950 168.482,69.400 169.515 L 68.400 171.394 68.400 186.400 L 68.400 201.406 69.400 203.285 C 69.950 204.318,70.400 205.780,70.400 206.534 C 70.400 211.474,80.325 222.805,85.572 223.854 C 86.519 224.044,87.037 224.496,87.623 225.644 L 88.406 227.181 86.703 228.048 C 85.766 228.525,84.765 229.249,84.477 229.658 C 84.190 230.066,83.729 230.400,83.452 230.400 C 82.809 230.400,78.032 235.200,77.317 236.564 C 77.019 237.134,76.615 237.600,76.420 237.600 C 76.226 237.600,75.751 238.455,75.366 239.500 C 74.982 240.545,74.329 241.780,73.917 242.243 C 71.790 244.635,71.856 268.156,74.001 272.556 C 74.442 273.460,75.044 275.387,75.340 276.838 C 75.668 278.453,76.211 279.811,76.738 280.338 C 77.212 280.812,77.602 281.515,77.604 281.900 C 77.606 282.285,78.236 283.390,79.004 284.356 C 79.772 285.322,80.400 286.237,80.400 286.389 C 80.400 286.541,80.830 286.895,81.356 287.176 C 81.882 287.458,82.522 288.073,82.778 288.544 C 83.233 289.380,83.921 289.821,87.600 291.637 C 88.590 292.125,89.903 292.896,90.517 293.350 C 92.703 294.966,110.369 294.925,112.669 293.299 C 113.291 292.859,114.427 292.364,115.192 292.198 C 117.070 291.791,121.584 289.376,122.716 288.173 C 123.220 287.638,123.801 287.200,124.006 287.200 C 124.584 287.200,126.914 284.491,127.467 283.176 C 127.739 282.529,128.128 282.000,128.333 282.000 C 128.733 282.000,131.600 285.350,131.600 285.819 C 131.600 286.545,137.898 293.255,139.600 294.342 C 140.150 294.693,140.751 295.224,140.937 295.520 C 141.122 295.817,142.022 296.411,142.937 296.840 C 143.851 297.269,145.050 297.870,145.600 298.175 C 148.729 299.911,151.619 301.116,153.229 301.356 C 154.235 301.505,156.305 302.068,157.829 302.605 L 160.600 303.583 187.000 303.554 C 214.849 303.523,221.633 303.290,225.181 302.245 C 226.617 301.823,230.102 301.488,235.385 301.267 C 240.291 301.061,243.762 300.741,244.319 300.443 C 245.551 299.784,250.834 298.800,253.141 298.800 C 254.200 298.800,255.617 298.477,256.406 298.055 C 257.173 297.646,258.880 296.999,260.200 296.618 C 261.520 296.237,262.922 295.582,263.316 295.163 C 263.709 294.743,264.231 294.400,264.474 294.400 C 264.718 294.400,265.866 293.770,267.026 293.000 C 268.186 292.230,269.242 291.600,269.371 291.600 C 269.890 291.600,274.949 286.108,276.170 284.218 C 278.367 280.820,279.164 279.470,280.017 277.700 C 281.024 275.614,281.462 275.572,282.261 277.483 C 283.446 280.319,286.149 282.853,290.123 284.850 C 291.045 285.314,292.134 285.987,292.542 286.347 C 293.188 286.916,294.635 287.000,303.742 287.000 L 314.200 287.000 315.756 285.900 C 316.612 285.295,317.737 284.800,318.256 284.800 C 318.775 284.800,319.556 284.444,319.991 284.009 C 320.426 283.574,321.371 282.969,322.091 282.664 C 323.591 282.029,328.875 276.595,329.853 274.682 C 330.214 273.977,330.729 273.270,330.999 273.111 C 331.269 272.952,331.724 271.962,332.010 270.911 C 332.296 269.860,332.861 268.522,333.265 267.938 C 334.077 266.766,334.407 246.294,333.646 244.319 C 333.090 242.875,332.066 238.003,331.851 235.773 C 331.743 234.658,331.193 232.876,330.627 231.813 C 330.062 230.750,329.600 229.679,329.600 229.433 C 329.600 228.002,323.160 221.200,321.805 221.200 C 320.290 221.200,320.360 220.040,321.973 218.427 C 322.868 217.532,323.743 216.800,323.919 216.800 C 324.380 216.800,327.200 213.842,327.200 213.358 C 327.200 213.133,327.720 212.451,328.357 211.842 C 328.993 211.232,329.626 210.172,329.763 209.486 C 329.900 208.800,330.346 207.870,330.753 207.419 C 331.211 206.913,331.750 205.166,332.164 202.846 C 332.533 200.781,333.097 198.585,333.418 197.966 C 334.209 196.435,334.250 184.870,333.470 183.280 C 332.927 182.174,332.225 178.637,331.806 174.894 C 331.677 173.735,331.127 171.953,330.585 170.934 C 330.043 169.915,329.600 168.761,329.600 168.371 C 329.600 167.981,329.175 167.153,328.655 166.531 C 328.135 165.909,327.595 165.033,327.455 164.585 C 327.200 163.769,323.857 160.000,323.388 160.000 C 323.251 160.000,322.613 159.474,321.971 158.832 C 321.328 158.190,320.281 157.550,319.643 157.409 C 319.005 157.269,318.174 156.813,317.795 156.395 C 317.415 155.975,316.279 155.513,315.254 155.363 C 314.234 155.213,312.089 154.665,310.488 154.145 C 306.187 152.749,298.483 152.763,295.475 154.172 C 294.334 154.706,292.740 155.263,291.934 155.410 C 291.128 155.556,290.061 156.109,289.564 156.638 C 289.067 157.167,288.422 157.600,288.130 157.600 C 287.839 157.600,287.600 157.765,287.600 157.966 C 287.600 158.167,287.048 158.842,286.374 159.466 C 285.699 160.090,284.866 161.131,284.522 161.780 C 284.178 162.430,283.650 163.207,283.349 163.508 C 283.048 163.810,282.698 164.538,282.571 165.128 C 282.179 166.957,279.653 171.194,278.952 171.197 C 278.706 171.199,278.282 170.406,278.010 169.436 C 277.738 168.465,277.085 167.296,276.558 166.838 C 276.031 166.380,275.600 165.797,275.600 165.542 C 275.600 163.420,266.903 155.067,262.568 153.026 C 261.891 152.707,261.111 152.175,260.836 151.844 C 260.561 151.512,259.675 151.028,258.868 150.768 C 255.968 149.833,255.897 149.745,256.856 148.288 C 257.323 147.580,258.406 146.503,259.264 145.896 C 260.122 145.288,261.003 144.318,261.223 143.740 C 261.443 143.162,262.040 142.192,262.551 141.586 C 263.122 140.907,263.569 139.723,263.713 138.508 C 263.841 137.422,264.319 135.429,264.773 134.079 C 265.899 130.738,265.928 124.663,264.832 121.780 C 264.410 120.669,263.935 118.449,263.777 116.845 C 263.567 114.716,263.251 113.643,262.603 112.865 C 262.115 112.279,261.596 111.150,261.450 110.355 C 261.304 109.560,260.853 108.610,260.448 108.243 C 260.042 107.876,259.404 106.896,259.029 106.065 C 258.593 105.096,257.819 104.279,256.874 103.789 C 256.063 103.369,254.891 102.614,254.269 102.113 C 253.612 101.582,252.595 101.200,251.839 101.200 C 251.124 101.200,249.203 100.729,247.570 100.152 C 244.340 99.013,234.046 98.513,227.200 99.163 M246.263 104.689 C 247.178 105.179,248.708 105.700,249.663 105.847 C 252.373 106.266,255.763 108.825,256.380 110.917 C 256.653 111.843,257.229 112.983,257.661 113.451 C 258.121 113.949,258.592 115.275,258.798 116.651 C 258.991 117.943,259.548 120.080,260.036 121.400 C 261.217 124.596,261.549 130.164,260.661 131.881 C 260.315 132.551,259.643 134.598,259.168 136.430 C 258.211 140.125,256.349 142.861,254.309 143.572 C 253.680 143.791,252.588 144.382,251.882 144.885 C 249.932 146.277,238.330 146.288,236.451 144.900 C 235.781 144.405,235.052 144.000,234.832 144.000 C 234.110 144.000,231.237 140.885,230.967 139.809 C 229.847 135.347,232.793 131.201,235.642 133.230 C 238.721 135.422,244.185 133.369,245.189 129.642 C 245.406 128.835,245.852 127.821,246.179 127.388 C 247.990 124.992,244.071 118.087,240.517 117.413 C 239.812 117.280,238.385 116.795,237.347 116.335 C 235.193 115.383,231.715 115.506,229.577 116.612 C 228.915 116.954,227.238 117.371,225.849 117.538 C 223.508 117.820,220.382 119.311,219.000 120.807 C 218.780 121.045,218.191 121.626,217.692 122.099 C 217.193 122.571,216.518 123.852,216.194 124.946 C 215.869 126.039,215.302 127.266,214.934 127.673 C 214.366 128.300,214.238 129.695,214.085 136.906 C 213.983 141.696,213.730 145.618,213.503 145.900 C 213.209 146.266,211.196 146.400,205.974 146.400 C 196.749 146.400,197.600 147.627,197.600 134.322 L 197.600 124.022 199.054 119.721 C 200.526 115.371,203.053 111.555,204.838 110.988 C 205.218 110.867,206.200 110.235,207.020 109.584 C 207.839 108.933,208.893 108.400,209.362 108.400 C 209.831 108.400,210.914 107.924,211.770 107.343 C 213.004 106.505,214.071 106.211,216.923 105.925 C 218.901 105.726,220.868 105.378,221.293 105.150 C 224.674 103.341,243.106 103.001,246.263 104.689 M176.735 104.800 C 178.687 104.800,183.306 106.298,184.835 107.426 C 185.561 107.962,186.362 108.400,186.615 108.400 C 187.218 108.400,190.204 111.952,190.570 113.106 C 190.727 113.600,191.319 114.556,191.887 115.230 L 192.918 116.456 193.114 130.744 C 193.347 147.703,193.734 146.400,188.469 146.400 C 186.558 146.400,184.411 146.568,183.697 146.772 C 182.035 147.249,181.403 146.287,181.783 143.856 C 182.449 139.596,182.476 133.573,181.836 131.973 C 181.464 131.042,181.197 129.185,181.193 127.492 C 181.186 124.949,181.041 124.387,179.993 122.840 C 179.337 121.872,178.800 120.902,178.800 120.685 C 178.800 119.756,175.292 116.016,173.800 115.354 C 172.920 114.963,171.668 114.280,171.019 113.837 C 170.021 113.155,169.183 113.029,165.619 113.021 L 161.400 113.012 159.436 114.531 C 157.327 116.163,155.200 118.605,155.200 119.395 C 155.200 119.662,154.750 120.727,154.200 121.762 C 151.089 127.612,156.970 135.156,164.671 135.194 C 167.292 135.207,168.047 138.652,165.987 141.200 C 165.542 141.750,164.911 142.784,164.585 143.498 C 164.258 144.212,163.249 145.292,162.342 145.898 C 161.435 146.504,160.222 147.314,159.646 147.698 C 157.840 148.902,152.942 148.469,151.174 146.948 C 150.830 146.652,149.930 146.197,149.174 145.938 C 145.754 144.762,141.793 140.495,141.377 137.538 C 141.242 136.582,140.877 135.121,140.566 134.292 C 139.835 132.344,139.827 126.054,140.552 123.184 C 140.855 121.983,141.223 120.044,141.369 118.876 C 141.763 115.718,147.715 108.400,149.889 108.400 C 150.227 108.400,151.425 107.881,152.551 107.247 C 154.270 106.279,155.184 106.063,158.224 105.901 C 160.218 105.796,162.231 105.505,162.698 105.255 C 163.165 105.005,165.224 104.782,167.274 104.760 C 169.323 104.738,171.450 104.589,172.000 104.430 C 172.550 104.270,173.539 104.288,174.197 104.469 C 174.856 104.651,175.998 104.800,176.735 104.800 M170.183 118.604 C 170.808 119.042,171.787 119.682,172.360 120.028 C 172.932 120.373,173.734 121.363,174.142 122.228 C 174.549 123.092,175.170 124.124,175.522 124.520 C 177.041 126.233,178.004 138.089,177.035 143.163 C 176.208 147.493,176.106 147.600,172.784 147.600 C 168.400 147.600,168.319 147.409,170.660 142.600 C 171.195 141.500,171.790 139.610,171.981 138.400 C 172.173 137.190,172.386 136.020,172.454 135.800 C 172.717 134.962,171.472 131.619,170.588 130.788 C 169.582 129.844,168.043 129.698,165.400 130.298 C 163.208 130.796,160.868 129.742,159.235 127.521 C 157.186 124.735,157.607 123.274,161.600 119.318 L 163.400 117.535 166.224 117.671 C 168.228 117.768,169.377 118.039,170.183 118.604 M238.633 122.019 C 241.966 123.926,242.533 125.384,240.787 127.557 C 239.242 129.479,238.454 129.590,235.921 128.244 C 229.320 124.734,222.856 136.675,227.609 143.600 C 229.035 145.679,228.045 146.400,223.762 146.400 C 218.671 146.400,218.797 146.625,218.809 137.611 C 218.817 131.391,218.908 130.419,219.623 129.000 C 222.116 124.048,223.751 122.421,226.274 122.383 C 226.893 122.374,228.915 121.855,230.766 121.230 C 234.575 119.945,235.099 119.997,238.633 122.019 M245.288 152.798 C 250.743 153.151,251.333 153.268,253.320 154.390 C 254.500 155.055,255.720 155.601,256.032 155.602 C 258.064 155.608,268.867 164.633,270.394 167.600 C 270.791 168.370,271.476 169.327,271.918 169.726 C 272.359 170.126,272.832 171.046,272.968 171.771 C 273.104 172.497,273.562 173.404,273.985 173.787 C 274.849 174.568,275.042 175.276,275.593 179.699 C 275.806 181.403,276.260 183.225,276.603 183.748 C 277.649 185.344,277.712 269.167,276.668 270.323 C 276.265 270.769,275.660 272.364,275.324 273.867 C 274.987 275.370,274.395 276.960,274.008 277.400 C 273.620 277.840,273.055 278.664,272.752 279.231 C 271.020 282.468,266.801 287.200,265.648 287.200 C 265.481 287.200,264.739 287.740,264.000 288.400 C 263.261 289.060,262.363 289.600,262.006 289.600 C 261.648 289.600,260.770 290.032,260.054 290.560 C 259.339 291.088,258.089 291.644,257.277 291.797 C 256.465 291.949,254.771 292.507,253.513 293.037 C 252.215 293.583,250.396 294.007,249.312 294.017 C 246.657 294.040,241.171 294.923,240.166 295.488 C 239.666 295.769,234.622 296.214,227.566 296.599 C 218.762 297.079,215.419 297.404,214.285 297.888 C 211.823 298.939,164.111 298.924,161.800 297.871 C 160.920 297.470,158.760 296.905,157.000 296.616 C 155.219 296.323,152.931 295.626,151.840 295.044 C 150.763 294.470,149.625 294.000,149.312 294.000 C 149.000 294.000,147.959 293.460,147.000 292.800 C 146.041 292.140,145.092 291.600,144.892 291.600 C 143.434 291.600,135.009 281.791,134.319 279.291 C 134.103 278.508,133.574 277.391,133.144 276.809 C 132.707 276.219,132.109 274.305,131.790 272.475 C 131.475 270.673,130.899 268.712,130.509 268.117 C 129.856 267.121,129.775 264.848,129.480 239.218 C 128.896 188.448,129.123 175.391,130.627 173.332 C 131.082 172.710,131.582 171.856,131.739 171.435 C 132.597 169.136,142.036 160.000,143.554 160.000 C 143.941 160.000,144.965 159.465,145.829 158.811 C 146.693 158.157,147.817 157.617,148.327 157.611 C 148.836 157.605,149.826 157.174,150.527 156.652 C 151.292 156.083,152.603 155.616,153.812 155.482 C 154.918 155.359,157.207 154.781,158.899 154.196 C 163.370 152.653,227.116 151.621,245.288 152.798 M98.400 157.230 C 99.610 157.431,101.500 157.597,102.600 157.600 C 105.032 157.605,107.354 158.211,108.204 159.062 C 108.552 159.409,109.538 159.851,110.395 160.043 C 112.413 160.497,117.600 165.451,117.600 166.925 C 117.600 167.455,118.091 168.588,118.691 169.444 C 120.194 171.586,120.309 176.373,118.901 178.162 C 118.407 178.790,117.805 180.037,117.564 180.933 C 117.101 182.654,114.120 186.000,113.050 186.000 C 112.726 186.000,111.910 186.464,111.237 187.030 C 109.248 188.704,108.634 188.263,108.400 184.996 C 108.010 179.540,103.049 175.589,97.821 176.570 C 95.593 176.988,92.110 180.089,91.595 182.112 C 91.360 183.040,90.969 184.196,90.727 184.679 C 89.199 187.734,92.875 195.577,96.869 197.784 C 97.898 198.352,98.804 199.012,98.883 199.250 C 99.274 200.423,111.005 201.574,112.985 200.634 C 113.720 200.285,115.214 200.000,116.305 200.000 C 117.905 200.000,118.581 199.769,119.788 198.809 C 122.476 196.673,122.696 197.163,122.885 205.694 C 123.016 211.588,123.177 213.232,123.721 214.200 C 124.521 215.624,124.634 219.559,123.900 220.465 C 122.498 222.198,121.625 222.400,115.554 222.400 C 111.695 222.400,108.610 222.622,106.545 223.049 C 102.425 223.901,97.836 223.559,94.926 222.182 C 93.784 221.642,92.244 221.200,91.503 221.200 C 90.694 221.200,89.401 220.721,88.264 220.000 C 87.224 219.340,86.149 218.800,85.875 218.800 C 84.592 218.800,78.280 213.123,77.777 211.516 C 77.620 211.012,77.091 210.122,76.602 209.537 C 76.114 208.953,75.594 207.723,75.447 206.804 C 75.300 205.885,74.694 204.204,74.101 203.067 L 73.022 201.000 73.018 186.600 L 73.013 172.200 74.084 170.200 C 74.673 169.100,75.282 167.660,75.437 167.000 C 75.595 166.329,76.531 165.051,77.560 164.101 C 78.572 163.167,79.850 161.974,80.400 161.451 C 80.950 160.928,81.971 160.312,82.668 160.082 C 83.365 159.852,84.298 159.302,84.739 158.861 C 85.218 158.382,86.320 157.964,87.471 157.826 C 88.532 157.699,90.660 157.347,92.200 157.043 C 93.740 156.739,95.270 156.574,95.600 156.677 C 95.930 156.780,97.190 157.028,98.400 157.230 M306.407 158.001 C 307.570 158.222,309.077 158.679,309.756 159.018 C 310.434 159.356,312.289 159.826,313.879 160.063 C 316.214 160.410,316.888 160.675,317.394 161.446 C 317.737 161.971,318.234 162.400,318.498 162.400 C 319.355 162.400,324.358 168.094,324.629 169.379 C 324.771 170.051,325.314 171.168,325.836 171.863 C 326.558 172.825,326.881 173.986,327.193 176.740 C 327.418 178.728,327.783 180.830,328.004 181.411 C 329.891 186.374,330.094 195.100,328.405 198.590 C 327.938 199.555,327.369 201.572,327.140 203.072 C 326.844 205.014,326.447 206.095,325.762 206.822 C 325.233 207.384,324.800 208.052,324.800 208.306 C 324.800 209.124,320.626 213.549,318.220 215.282 C 317.394 215.876,315.882 216.488,314.859 216.641 C 313.837 216.795,311.788 217.343,310.308 217.860 C 306.467 219.201,283.517 219.340,282.814 218.026 C 282.016 216.536,282.277 199.035,283.108 198.283 C 283.952 197.519,286.166 197.877,287.909 199.060 C 289.658 200.246,298.355 200.140,300.815 198.902 C 301.797 198.408,303.320 197.826,304.200 197.608 C 312.019 195.676,313.929 184.486,307.600 177.692 C 303.838 173.654,296.348 178.638,296.907 184.806 C 297.241 188.493,294.897 189.342,291.614 186.724 C 290.977 186.216,289.858 185.369,289.128 184.843 C 288.397 184.316,287.125 182.932,286.300 181.767 L 284.800 179.648 284.800 175.386 C 284.800 171.335,285.431 168.800,286.439 168.800 C 286.585 168.800,286.903 168.035,287.146 167.100 C 287.769 164.698,291.640 160.541,293.800 159.955 C 294.680 159.716,295.716 159.240,296.101 158.897 C 297.436 157.711,302.536 157.267,306.407 158.001 M124.221 182.632 C 124.788 187.169,123.217 191.163,120.281 192.646 C 119.577 193.002,118.596 193.663,118.103 194.114 C 117.609 194.565,116.169 195.161,114.903 195.438 C 113.636 195.715,111.589 196.167,110.354 196.442 C 108.395 196.878,107.927 196.857,106.694 196.271 C 105.916 195.902,104.787 195.600,104.186 195.600 C 102.568 195.600,99.947 194.727,99.710 194.109 C 99.596 193.813,98.991 193.306,98.366 192.983 C 97.568 192.570,97.097 191.904,96.786 190.748 C 96.542 189.842,96.147 188.628,95.909 188.050 C 94.941 185.707,96.572 181.807,98.685 181.410 C 101.590 180.866,103.086 182.881,103.556 187.969 C 103.743 189.997,104.109 191.868,104.369 192.128 C 105.159 192.916,111.356 192.746,112.278 191.911 C 112.697 191.531,113.814 190.948,114.759 190.614 C 116.372 190.045,117.567 188.970,121.491 184.555 C 122.201 183.756,122.896 182.494,123.036 181.751 C 123.412 179.744,123.906 180.111,124.221 182.632 M306.124 185.058 C 307.321 189.543,305.221 193.197,301.446 193.199 C 300.716 193.200,299.936 193.584,299.325 194.244 C 298.044 195.625,290.952 195.555,288.200 194.134 C 287.320 193.680,285.880 193.178,285.000 193.018 C 282.699 192.601,282.400 192.208,282.400 189.600 C 282.400 186.483,283.168 185.789,284.798 187.434 C 287.400 190.060,287.917 190.441,289.425 190.850 C 290.291 191.085,291.360 191.604,291.800 192.004 C 292.614 192.745,293.757 192.913,297.500 192.841 C 298.747 192.816,299.600 192.620,299.600 192.356 C 299.600 192.112,299.980 191.518,300.444 191.035 C 301.736 189.694,302.471 187.232,301.996 185.841 C 301.561 184.567,301.812 184.035,303.566 182.509 C 304.865 181.379,305.244 181.757,306.124 185.058 M156.859 192.805 C 154.552 193.292,151.254 196.131,149.608 199.047 C 148.062 201.787,147.855 210.316,149.300 211.758 C 149.685 212.143,150.000 212.618,150.000 212.815 C 150.000 213.509,152.535 216.047,154.596 217.415 C 157.611 219.416,164.328 219.512,167.158 217.594 C 180.674 208.435,172.784 189.444,156.859 192.805 M236.952 192.770 C 234.469 193.177,231.504 195.479,230.190 198.020 C 229.808 198.757,229.250 199.608,228.948 199.909 C 228.542 200.315,228.400 201.761,228.400 205.487 L 228.400 210.517 229.785 212.604 C 231.077 214.550,232.135 215.594,235.189 217.933 C 237.120 219.413,245.067 219.111,247.400 217.470 C 249.749 215.817,251.872 213.399,252.413 211.761 C 252.674 210.970,253.137 209.845,253.441 209.261 C 254.443 207.342,254.149 203.639,252.751 200.555 C 249.666 193.750,245.002 191.452,236.952 192.770 M164.649 197.008 C 168.571 199.669,169.600 201.496,169.600 205.800 C 169.600 213.064,163.806 216.806,156.800 214.068 C 150.541 211.622,151.087 199.067,157.542 197.018 C 158.014 196.869,158.400 196.578,158.400 196.373 C 158.400 195.496,163.129 195.976,164.649 197.008 M244.880 197.175 C 249.962 200.647,251.306 207.245,247.801 211.519 C 247.494 211.893,246.918 212.601,246.521 213.091 C 245.025 214.939,240.128 215.420,236.800 214.046 C 230.507 211.447,230.822 199.842,237.257 197.176 C 237.886 196.916,238.400 196.545,238.400 196.351 C 238.400 195.398,243.166 196.004,244.880 197.175 M308.382 223.465 C 316.451 223.716,316.949 223.777,317.974 224.639 C 318.568 225.139,319.506 225.661,320.058 225.800 C 321.417 226.141,324.279 229.161,324.624 230.619 C 324.777 231.269,325.320 232.250,325.829 232.800 C 326.547 233.576,326.851 234.582,327.188 237.292 C 327.426 239.213,328.065 242.093,328.607 243.692 C 330.381 248.919,330.000 266.063,328.063 268.139 C 327.621 268.612,327.141 269.478,326.996 270.062 C 326.851 270.646,326.298 271.533,325.766 272.032 C 325.235 272.531,324.800 273.135,324.800 273.375 C 324.800 273.845,322.206 276.520,320.104 278.218 C 318.958 279.143,317.763 279.844,314.000 281.796 C 310.890 283.409,295.575 282.929,293.334 281.148 C 292.540 280.517,291.599 280.000,291.244 280.000 C 290.888 280.000,290.088 279.460,289.465 278.800 C 288.842 278.140,288.185 277.600,288.005 277.600 C 287.825 277.600,287.490 277.060,287.260 276.401 C 287.030 275.742,286.408 274.617,285.876 273.901 C 284.596 272.176,283.692 266.176,284.353 263.793 C 284.596 262.917,284.800 261.750,284.805 261.200 C 284.810 260.566,285.457 259.540,286.569 258.400 C 290.524 254.345,290.515 254.351,293.207 254.272 C 296.042 254.190,296.225 254.353,296.604 257.298 C 297.234 262.193,304.428 265.353,308.506 262.527 C 312.218 259.954,314.047 254.511,312.058 251.954 C 311.650 251.429,311.096 250.323,310.826 249.496 C 309.734 246.148,305.060 242.820,300.800 242.357 C 299.150 242.177,297.260 241.872,296.600 241.678 C 295.788 241.439,294.899 241.498,293.850 241.862 C 290.964 242.863,283.336 242.596,283.057 241.484 C 282.539 239.422,282.279 225.373,282.743 224.507 C 283.425 223.233,291.017 222.924,308.382 223.465 M123.424 227.767 C 124.149 228.297,124.207 228.961,124.309 237.867 C 124.425 248.066,124.300 248.869,122.750 247.873 C 122.228 247.537,120.932 247.136,119.872 246.982 C 118.812 246.827,117.058 246.273,115.974 245.750 C 113.312 244.466,110.631 244.654,108.770 246.256 C 108.423 246.554,107.343 246.952,106.370 247.139 C 104.533 247.493,102.861 248.815,100.157 252.052 L 98.800 253.676 98.801 258.338 C 98.803 263.500,99.051 264.225,101.738 266.911 C 102.685 267.859,103.680 268.411,104.772 268.595 C 105.665 268.746,106.497 269.034,106.622 269.235 C 107.487 270.636,114.913 268.780,115.441 267.031 C 115.739 266.043,117.096 264.490,118.164 263.915 C 119.051 263.437,122.143 266.522,122.600 268.341 C 122.738 268.894,123.290 269.867,123.826 270.504 C 125.129 272.052,125.068 279.387,123.744 280.349 C 123.553 280.487,122.890 281.349,122.270 282.264 C 121.649 283.178,120.570 284.158,119.871 284.439 C 119.172 284.721,118.215 285.356,117.743 285.849 C 117.272 286.343,116.192 286.866,115.343 287.011 C 114.495 287.156,113.350 287.590,112.800 287.974 C 109.658 290.172,94.424 290.628,91.770 288.604 C 91.015 288.029,89.841 287.363,89.160 287.126 C 86.522 286.207,80.546 278.898,80.116 276.065 C 79.993 275.259,79.429 273.610,78.862 272.400 C 77.982 270.521,77.792 269.413,77.556 264.800 C 77.404 261.830,77.082 258.893,76.840 258.274 C 76.305 256.905,76.262 253.405,76.768 252.459 C 76.971 252.081,77.323 250.098,77.552 248.054 C 77.894 244.992,78.181 244.013,79.183 242.500 C 79.853 241.489,80.400 240.496,80.400 240.293 C 80.400 239.311,86.890 233.200,87.934 233.200 C 88.130 233.200,88.740 232.751,89.289 232.202 C 89.837 231.654,91.077 230.929,92.043 230.592 C 93.009 230.255,94.025 229.679,94.300 229.313 C 94.687 228.797,95.861 228.570,99.500 228.306 C 102.085 228.119,105.190 227.820,106.400 227.641 C 110.468 227.040,122.551 227.130,123.424 227.767 M194.600 240.392 C 191.045 241.310,185.602 244.891,185.601 246.313 C 185.600 246.594,185.331 246.928,185.003 247.054 C 183.500 247.631,182.704 254.447,183.633 258.782 C 184.239 261.607,187.852 265.268,190.913 266.157 C 204.180 270.014,216.179 267.614,219.688 260.400 C 222.164 255.311,221.505 248.239,218.278 245.266 C 217.880 244.899,217.156 244.213,216.669 243.740 C 215.853 242.949,211.775 241.299,208.400 240.394 C 206.739 239.949,196.321 239.947,194.600 240.392 M207.389 244.588 C 215.555 245.814,219.335 251.867,216.140 258.604 C 212.914 265.407,192.048 265.934,188.346 259.306 C 186.167 255.405,187.225 248.483,190.208 247.124 C 190.753 246.875,191.200 246.527,191.200 246.350 C 191.200 244.508,200.275 243.520,207.389 244.588 M299.683 246.944 C 302.699 247.390,306.000 249.487,306.000 250.955 C 306.000 251.172,306.337 251.720,306.749 252.174 C 309.394 255.090,307.760 258.800,303.830 258.800 C 301.933 258.800,301.539 258.068,301.304 254.106 C 301.027 249.427,301.264 249.600,295.103 249.600 C 289.425 249.600,290.127 249.385,284.956 252.707 C 282.275 254.429,281.787 251.618,284.300 248.926 L 285.800 247.318 289.719 247.068 C 291.874 246.931,293.944 246.635,294.319 246.411 C 294.693 246.186,295.360 246.112,295.800 246.245 C 296.240 246.378,297.987 246.693,299.683 246.944 M115.800 250.641 C 116.460 250.991,117.957 251.531,119.126 251.841 C 122.778 252.807,124.800 254.862,124.800 257.608 C 124.800 260.909,123.993 261.814,122.509 260.177 C 119.365 256.709,113.736 257.525,112.955 261.563 C 112.068 266.149,104.643 265.487,103.623 260.731 C 102.637 256.136,104.757 252.355,108.646 251.772 C 109.633 251.624,110.659 251.284,110.927 251.016 C 112.068 249.874,114.065 249.721,115.800 250.641 " />
</svg>
