<svg version="1.1" xmlns="http://www.w3.org/2000/svg" xmlns:xlink="http://www.w3.org/1999/xlink" viewBox="0, 0, 400,400">
    <g fill="#74243c">
        <path d="M195.191 68.726 C 194.636 68.877,193.539 69.495,192.753 70.100 C 191.052 71.410,190.564 71.469,190.284 70.398 C 189.917 68.995,188.944 69.933,188.395 72.220 C 187.789 74.745,187.871 74.699,186.327 73.400 C 185.673 72.850,185.007 72.400,184.846 72.400 C 183.081 72.400,182.063 77.416,183.411 79.472 C 183.915 80.242,184.104 81.208,184.044 82.705 C 183.966 84.623,184.081 84.955,185.179 85.980 C 186.201 86.935,186.400 87.423,186.400 88.977 C 186.400 93.128,188.027 100.494,189.351 102.342 C 192.763 107.101,192.354 108.450,186.600 111.416 C 173.135 118.357,173.894 117.289,173.539 129.800 C 173.395 134.860,173.067 140.080,172.808 141.400 C 172.550 142.720,172.248 146.005,172.137 148.700 C 172.026 151.395,171.891 153.600,171.838 153.600 C 171.785 153.600,170.727 152.610,169.488 151.400 C 166.139 148.130,164.931 148.560,160.102 154.739 C 157.031 158.669,156.399 160.062,157.141 161.260 C 157.394 161.667,157.810 162.338,158.066 162.751 C 158.459 163.385,158.334 163.714,157.268 164.851 C 155.307 166.943,155.205 166.774,162.342 173.307 C 165.251 175.969,166.162 176.370,167.580 175.611 C 168.178 175.290,168.483 175.486,169.293 176.711 C 170.389 178.366,171.468 179.022,173.700 179.389 C 175.471 179.681,175.608 180.333,174.334 182.400 C 173.010 184.546,171.200 188.038,171.200 188.445 C 171.200 188.645,170.825 189.607,170.366 190.583 C 169.316 192.817,169.536 193.482,171.933 195.309 C 174.637 197.372,175.039 199.539,175.771 216.000 C 175.913 219.190,176.191 222.700,176.390 223.800 C 176.589 224.900,176.947 227.473,177.186 229.517 C 177.673 233.694,178.525 237.308,179.320 238.561 C 179.890 239.461,180.476 242.000,181.222 246.800 C 181.478 248.450,181.828 250.340,182.000 251.000 C 182.172 251.660,182.522 253.550,182.778 255.200 C 183.035 256.850,183.417 259.100,183.627 260.200 C 183.838 261.300,184.385 265.530,184.844 269.600 C 185.302 273.670,185.774 277.156,185.891 277.347 C 186.093 277.675,186.388 278.724,187.200 282.000 C 187.391 282.770,187.752 284.120,188.004 285.000 C 188.625 287.178,189.137 289.699,189.587 292.800 C 189.962 295.392,190.283 297.295,191.241 302.600 C 191.518 304.140,191.758 306.376,191.773 307.569 L 191.800 309.738 189.800 310.933 C 185.972 313.220,182.187 315.043,180.200 315.558 C 177.945 316.142,176.000 316.827,176.000 317.037 C 176.000 317.114,176.440 318.172,176.978 319.389 L 177.956 321.600 191.747 321.600 C 210.264 321.600,211.073 321.412,211.282 317.054 C 211.389 314.832,211.488 314.588,212.329 314.468 C 213.302 314.331,213.314 317.011,212.349 318.874 C 212.157 319.244,212.000 319.838,212.000 320.193 C 212.000 320.864,211.154 322.721,209.668 325.312 C 207.060 329.857,208.824 331.444,216.312 331.292 C 226.125 331.092,229.600 329.221,229.600 324.138 C 229.600 323.028,229.797 321.553,230.039 320.861 C 230.424 319.754,230.340 319.373,229.339 317.701 C 226.792 313.448,226.915 314.485,227.042 298.471 C 227.106 290.402,226.991 283.055,226.787 282.145 C 226.584 281.235,226.333 276.015,226.230 270.545 C 225.987 257.660,225.359 254.097,222.590 249.914 C 221.325 248.001,221.341 246.586,222.663 243.712 C 223.990 240.827,224.411 236.785,224.104 229.890 C 223.962 226.724,224.032 224.442,224.288 223.890 C 225.238 221.839,225.600 220.707,225.600 219.781 C 225.600 218.697,226.184 218.461,226.545 219.400 C 227.449 221.756,233.754 216.791,237.176 211.028 C 238.684 208.488,239.010 203.905,238.002 199.408 C 237.629 197.745,237.678 197.335,238.388 196.131 C 239.258 194.655,239.451 193.003,238.800 192.600 C 238.580 192.464,238.400 191.474,238.400 190.400 C 238.400 189.326,238.580 188.336,238.800 188.200 C 239.020 188.064,239.200 187.601,239.200 187.171 C 239.200 186.741,239.363 186.077,239.562 185.695 C 244.184 176.834,245.323 160.647,242.017 150.800 C 241.833 150.250,241.466 147.730,241.202 145.200 C 240.788 141.221,240.060 138.094,238.829 135.000 C 238.111 133.195,237.599 131.286,237.588 130.372 C 237.582 129.837,237.227 128.140,236.800 126.600 C 236.373 125.060,236.016 123.080,236.007 122.200 C 235.967 118.273,234.218 114.171,231.999 112.799 C 231.120 112.256,230.400 111.685,230.400 111.531 C 230.400 111.377,228.653 110.395,226.518 109.349 C 222.910 107.583,221.321 107.085,217.530 106.535 C 216.572 106.396,215.335 105.702,213.975 104.541 C 212.227 103.049,211.703 102.802,210.744 103.012 C 209.064 103.381,209.032 100.492,210.700 98.941 C 211.305 98.378,212.340 97.404,213.000 96.776 C 214.693 95.166,216.242 91.050,215.647 89.744 C 215.003 88.329,215.091 87.431,216.030 85.839 C 217.180 83.890,216.949 82.576,215.476 82.679 C 214.506 82.746,214.253 82.523,213.616 81.036 C 213.062 79.744,212.594 79.251,211.739 79.054 C 211.042 78.895,210.134 78.150,209.400 77.136 C 208.740 76.225,207.323 75.012,206.251 74.440 C 205.179 73.868,203.919 72.897,203.451 72.281 C 200.958 69.005,200.692 68.813,198.400 68.629 C 197.190 68.531,195.746 68.575,195.191 68.726 M172.000 155.054 C 172.000 155.632,171.198 158.796,170.967 159.128 C 170.778 159.399,169.200 158.184,169.200 157.768 C 169.200 157.230,171.284 154.435,171.700 154.415 C 171.865 154.407,172.000 154.694,172.000 155.054 ">
        </path>
    </g>
</svg>
